HIERARCHY
ROOT Hips
{
	OFFSET 0.000000 0.000000 0.000000
	CHANNELS 6 Xposition Yposition Zposition Zrotation Yrotation Xrotation 
	JOINT LowerBack
	{
		OFFSET 0.000000 0.000000 0.000000
		CHANNELS 3 Zrotation Yrotation Xrotation
		JOINT Spine
		{
			OFFSET 0.028270 2.035590 -0.193380
			CHANNELS 3 Zrotation Yrotation Xrotation
			JOINT Spine1
			{
				OFFSET 0.056720 2.048850 -0.042750
				CHANNELS 3 Zrotation Yrotation Xrotation
				JOINT Neck
				{
					OFFSET 0.000000 0.000000 0.000000
					CHANNELS 3 Zrotation Yrotation Xrotation
					JOINT Neck1
					{
						OFFSET -0.054170 1.746240 0.172020
						CHANNELS 3 Zrotation Yrotation Xrotation
						JOINT Head
						{
							OFFSET 0.104070 1.761360 -0.123970
							CHANNELS 3 Zrotation Yrotation Xrotation
							End Site
							{
								OFFSET 0.000000 0.000000 0.000000
							}
						}
					}
				}
				JOINT LeftShoulder
				{
					OFFSET 0.000000 0.000000 0.000000
					CHANNELS 3 Zrotation Yrotation Xrotation
					JOINT LeftArm
					{
						OFFSET 3.362410 1.200890 -0.311210
						CHANNELS 3 Zrotation Yrotation Xrotation
						JOINT LeftForeArm
						{
							OFFSET 4.983000 -0.000000 -0.000000
							CHANNELS 3 Zrotation Yrotation Xrotation
							JOINT LeftHand
							{
								OFFSET 3.483560 -0.000000 -0.000000
								CHANNELS 3 Zrotation Yrotation Xrotation
								JOINT LeftFingerBase
								{
									OFFSET 0.000000 0.000000 0.000000
									CHANNELS 3 Zrotation Yrotation Xrotation
									JOINT LeftHandIndex1
									{
										OFFSET 0.715260 -0.000000 -0.000000
										CHANNELS 3 Zrotation Yrotation Xrotation
										End Site
										{
											OFFSET 0.000000 0.000000 0.000000
										}
									}
								}
								JOINT LThumb
								{
									OFFSET 0.000000 0.000000 0.000000
									CHANNELS 3 Zrotation Yrotation Xrotation
									End Site
									{
										OFFSET 0.000000 0.000000 0.000000
									}
								}
							}
						}
					}
				}
				JOINT RightShoulder
				{
					OFFSET 0.000000 0.000000 0.000000
					CHANNELS 3 Zrotation Yrotation Xrotation
					JOINT RightArm
					{
						OFFSET -3.136600 1.374050 -0.404650
						CHANNELS 3 Zrotation Yrotation Xrotation
						JOINT RightForeArm
						{
							OFFSET -5.241900 -0.000000 -0.000000
							CHANNELS 3 Zrotation Yrotation Xrotation
							JOINT RightHand
							{
								OFFSET -3.444170 -0.000000 -0.000000
								CHANNELS 3 Zrotation Yrotation Xrotation
								JOINT RightFingerBase
								{
									OFFSET 0.000000 0.000000 0.000000
									CHANNELS 3 Zrotation Yrotation Xrotation
									JOINT RightHandIndex1
									{
										OFFSET -0.622530 -0.000000 -0.000000
										CHANNELS 3 Zrotation Yrotation Xrotation
										End Site
										{
											OFFSET 0.000000 0.000000 0.000000
										}
									}
								}
								JOINT RThumb
								{
									OFFSET 0.000000 0.000000 0.000000
									CHANNELS 3 Zrotation Yrotation Xrotation
									End Site
									{
										OFFSET 0.000000 0.000000 0.000000
									}
								}
							}
						}
					}
				}
			}
		}
	}
}
}
MOTION
Frames: 18
Frame Time: 0.008333
25.087680 16.180976 4.469126 -10.068268 -87.315294 8.311554 7.074531 -6.047578 -3.589054 1.349566 -6.664709 -3.032387 -4.874629 -6.618944 2.514343 9.175723 -23.675902 -10.709821 -2.484496 -0.155960 -0.740104 0.000000 0.000000 0.000000 2.101403 7.017996 1.574863 -34.281310 -10.789695 8.295802 -2.042490 -47.863080 0.006247 -2.106826 1.199850 -0.017130 -0.092777 0.153782 0.000000 0.000000 0.000000 0.000000 0.000000 0.000000 0.000000 16.327935 -23.056689 -0.446484 68.107482 -21.047360 0.757751 4.014932 27.393322 -0.000518 6.079780 1.102799 0.057095 0.062775 0.019961 -0.000000 0.000000 0.000000 0.000000 0.000000 0.000000 0.000000 
24.904215 16.191254 4.419614 -11.979440 -87.136190 10.062034 7.182622 -6.013110 -3.650527 1.360844 -6.641072 -3.049917 -4.898157 -6.593534 2.500620 9.188005 -23.686692 -10.683341 -2.532275 -0.161032 -0.732818 0.000000 0.000000 0.000000 2.121209 6.991412 1.564300 -34.504337 -9.828556 8.705184 -2.088368 -47.281030 0.005726 -2.045054 1.150074 -0.015825 -0.097112 0.143705 0.000000 0.000000 0.000000 0.000000 0.000000 0.000000 0.000000 16.544837 -23.019908 -0.503588 67.206721 -20.405659 0.840724 3.997010 27.492146 0.000052 5.900204 1.296535 0.065413 0.064005 0.017707 -0.000000 0.000000 0.000000 0.000000 0.000000 0.000000 0.000000 
24.723059 16.202795 4.369784 -13.737552 -86.922541 11.669983 7.279882 -5.976293 -3.703846 1.367077 -6.614471 -3.064219 -4.931784 -6.564747 2.490280 9.228816 -23.691942 -10.664439 -2.585081 -0.166420 -0.727677 0.000000 0.000000 0.000000 2.165990 6.970579 1.550889 -34.750119 -8.901768 9.145967 -2.136135 -46.638324 0.005217 -1.994769 1.115098 -0.014922 -0.101333 0.133228 0.000000 0.000000 0.000000 0.000000 0.000000 0.000000 0.000000 16.811554 -22.978924 -0.556603 66.323481 -19.711930 0.902796 3.981696 27.558477 0.000595 5.751111 1.490513 0.073530 0.065019 0.015496 -0.000000 0.000000 0.000000 0.000000 0.000000 0.000000 0.000000 
24.544919 16.215372 4.319853 -15.267010 -86.676131 13.055575 7.364159 -5.937796 -3.741553 1.367695 -6.585221 -3.073876 -4.975382 -6.533049 2.482826 9.294379 -23.682030 -10.652099 -2.642172 -0.172052 -0.724445 0.000000 0.000000 0.000000 2.233995 6.954513 1.536105 -35.013013 -8.008752 9.608775 -2.185403 -45.946348 0.004715 -1.958139 1.097121 -0.014524 -0.105406 0.122453 0.000000 0.000000 0.000000 0.000000 0.000000 0.000000 0.000000 17.118257 -22.924749 -0.603237 65.475877 -18.960432 0.911246 3.969592 27.574463 0.001114 5.619245 1.676834 0.080946 0.065961 0.013326 -0.000000 0.000000 0.000000 0.000000 0.000000 0.000000 0.000000 
24.370488 16.228766 4.269954 -16.503731 -86.403580 14.150829 7.429923 -5.896930 -3.754471 1.361220 -6.551971 -3.077043 -5.028919 -6.497252 2.477660 9.380819 -23.649655 -10.644901 -2.702651 -0.177844 -0.722776 0.000000 0.000000 0.000000 2.323989 6.940029 1.521241 -35.287003 -7.146762 10.084739 -2.235722 -45.217282 0.004212 -1.936337 1.096420 -0.014430 -0.109310 0.111452 0.000000 0.000000 0.000000 0.000000 0.000000 0.000000 0.000000 17.454982 -22.850342 -0.641059 64.681062 -18.147714 0.837959 3.960864 27.527684 0.001603 5.489759 1.843105 0.087061 0.066986 0.011206 -0.000000 0.000000 0.000000 0.000000 0.000000 0.000000 0.000000 
24.200383 16.242906 4.220391 -17.491190 -86.111448 14.999884 7.480398 -5.854166 -3.740938 1.348765 -6.515265 -3.073519 -5.090691 -6.458068 2.475731 9.479627 -23.584999 -10.641778 -2.764724 -0.183633 -0.722422 0.000000 0.000000 0.000000 2.425617 6.939470 1.507841 -35.564737 -6.324402 10.569555 -2.287142 -44.459858 0.003697 -1.927308 1.113939 -0.014739 -0.113083 0.100372 0.000000 0.000000 0.000000 0.000000 0.000000 0.000000 0.000000 17.803440 -22.746540 -0.669144 63.953288 -17.267351 0.659784 3.956009 27.397590 0.002065 5.347897 1.986605 0.091476 0.068234 0.009113 -0.000000 0.000000 0.000000 0.000000 0.000000 0.000000 0.000000 
24.034786 16.257594 4.171339 -18.256368 -85.809836 15.627611 7.515060 -5.807716 -3.696834 1.330269 -6.473041 -3.062798 -5.159452 -6.413582 2.476396 9.582631 -23.481047 -10.640000 -2.826994 -0.189318 -0.722691 0.000000 0.000000 0.000000 2.531957 6.953100 1.496853 -35.840275 -5.538542 11.056787 -2.339399 -43.685892 0.003169 -1.930947 1.146954 -0.015451 -0.116725 0.089291 0.000000 0.000000 0.000000 0.000000 0.000000 0.000000 0.000000 18.146909 -22.605910 -0.685984 63.306919 -16.320083 0.355785 3.955175 27.174159 0.002499 5.183660 2.099915 0.093790 0.069807 0.007028 -0.000000 0.000000 0.000000 0.000000 0.000000 0.000000 0.000000 
23.874005 16.272774 4.122736 -18.773441 -85.511945 16.000662 7.526757 -5.755073 -3.614929 1.304072 -6.421984 -3.043815 -5.234348 -6.360637 2.477328 9.683672 -23.333087 -10.635319 -2.888768 -0.194870 -0.722492 0.000000 0.000000 0.000000 2.639224 6.972841 1.488735 -36.108709 -4.775819 11.538541 -2.391934 -42.909216 0.002617 -1.945543 1.193166 -0.016566 -0.120225 0.078205 0.000000 0.000000 0.000000 0.000000 0.000000 0.000000 0.000000 18.474025 -22.422739 -0.690540 62.749388 -15.314276 -0.080754 3.957505 26.857855 0.002904 4.985125 2.177097 0.093503 0.071782 0.004913 -0.000000 0.000000 0.000000 0.000000 0.000000 0.000000 0.000000 
23.717853 16.288472 4.074723 -19.094268 -85.226893 16.171800 7.516927 -5.694832 -3.497550 1.270848 -6.360712 -3.017624 -5.313891 -6.297921 2.477327 9.773881 -23.132551 -10.623428 -2.949309 -0.200278 -0.720682 0.000000 0.000000 0.000000 2.737840 7.001640 1.484053 -36.365387 -4.030775 12.010423 -2.444795 -42.139492 0.002043 -1.969122 1.248820 -0.017784 -0.123608 0.067163 0.000000 0.000000 0.000000 0.000000 0.000000 0.000000 0.000000 18.769551 -22.187370 -0.683299 62.284712 -14.261417 -0.660396 3.962912 26.447169 0.003280 4.750298 2.221991 0.090916 0.074165 0.002707 -0.000000 0.000000 0.000000 0.000000 0.000000 0.000000 0.000000 
23.566214 16.304695 4.027218 -19.247432 -84.964300 16.167332 7.483400 -5.624975 -3.345783 1.230684 -6.286949 -2.984498 -5.395894 -6.223257 2.476686 9.848645 -22.885716 -10.603224 -3.007026 -0.205411 -0.717009 0.000000 0.000000 0.000000 2.821074 7.046295 1.482286 -36.607249 -3.309754 12.470507 -2.497921 -41.377488 0.001448 -1.997698 1.308774 -0.019305 -0.126888 0.056222 0.000000 0.000000 0.000000 0.000000 0.000000 0.000000 0.000000 19.024292 -21.905302 -0.665595 61.906818 -13.162568 -1.352845 3.969745 25.945165 0.003640 4.469685 2.243635 0.086429 0.076959 0.000349 -0.000000 0.000000 0.000000 0.000000 0.000000 0.000000 0.000000 
23.418458 16.321537 3.980149 -19.253632 -84.731892 16.008902 7.424869 -5.543648 -3.163844 1.183579 -6.198778 -2.945872 -5.479596 -6.134715 2.473519 9.903606 -22.588791 -10.570599 -3.062078 -0.210346 -0.710361 0.000000 0.000000 0.000000 2.882838 7.105362 1.483284 -36.831456 -2.604088 12.912495 -2.551450 -40.629007 0.000841 -2.029482 1.368722 -0.020728 -0.130077 0.045374 0.000000 0.000000 0.000000 0.000000 0.000000 0.000000 0.000000 19.232593 -21.570680 -0.638959 61.608735 -12.037109 -2.150199 3.977241 25.366598 0.003984 4.149100 2.250769 0.080440 0.080082 -0.002220 -0.000000 0.000000 0.000000 0.000000 0.000000 0.000000 0.000000 
23.274265 16.339075 3.933371 -19.137760 -84.535817 15.720126 7.339984 -5.449268 -2.956630 1.129771 -6.094580 -2.902935 -5.563610 -6.030662 2.467399 9.937643 -22.248054 -10.524498 -3.113990 -0.215066 -0.700466 0.000000 0.000000 0.000000 2.918916 7.182984 1.486075 -37.037605 -1.915468 13.331063 -2.605561 -39.892072 0.000230 -2.061381 1.423989 -0.022252 -0.133182 0.034645 0.000000 0.000000 0.000000 0.000000 0.000000 0.000000 0.000000 19.393362 -21.188040 -0.605606 61.376298 -10.894905 -3.014165 3.983957 24.726829 0.004320 3.791553 2.257255 0.073551 0.083442 -0.005039 -0.000000 0.000000 0.000000 0.000000 0.000000 0.000000 0.000000 
23.132936 16.357436 3.886739 -18.911875 -84.379998 15.317916 7.227481 -5.340730 -2.731742 1.069506 -5.973332 -2.857323 -5.647062 -5.910015 2.458310 9.951533 -21.868901 -10.464445 -3.162638 -0.219585 -0.687160 0.000000 0.000000 0.000000 2.926688 7.283411 1.489745 -37.226720 -1.244726 13.717911 -2.660742 -39.163257 -0.000379 -2.090416 1.472000 -0.023578 -0.136224 0.024060 0.000000 0.000000 0.000000 0.000000 0.000000 0.000000 0.000000 19.508691 -20.761029 -0.567772 61.192938 -9.748510 -3.905287 3.988858 24.046837 0.004654 3.405729 2.275090 0.066561 0.086926 -0.008111 -0.000000 0.000000 0.000000 0.000000 0.000000 0.000000 0.000000 
22.993771 16.376693 3.840157 -18.585547 -84.266148 14.814376 7.086688 -5.217591 -2.497367 1.003135 -5.834765 -2.810778 -5.729416 -5.772408 2.446039 9.947656 -21.456407 -10.390784 -3.208256 -0.223941 -0.670509 0.000000 0.000000 0.000000 2.904751 7.410478 1.493459 -37.400156 -0.593809 14.063207 -2.717541 -38.437440 -0.000978 -2.113807 1.511195 -0.024704 -0.139222 0.013660 0.000000 0.000000 0.000000 0.000000 0.000000 0.000000 0.000000 19.584017 -20.292759 -0.527661 61.042176 -8.611023 -4.785564 3.991312 23.350816 0.004990 3.005989 2.314195 0.059572 0.090395 -0.011413 -0.000000 0.000000 0.000000 0.000000 0.000000 0.000000 0.000000 
22.856316 16.396899 3.793560 -18.162017 -84.194536 14.219669 6.917263 -5.080218 -2.262888 0.931326 -5.679476 -2.764930 -5.809424 -5.618362 2.431864 9.929288 -21.020859 -10.306088 -3.250222 -0.228071 -0.651139 0.000000 0.000000 0.000000 2.852796 7.570452 1.496036 -37.562876 0.034009 14.352967 -2.776656 -37.707832 -0.001560 -2.127974 1.541953 -0.025631 -0.142197 0.003521 0.000000 0.000000 0.000000 0.000000 0.000000 0.000000 0.000000 19.623775 -19.792675 -0.487020 60.905732 -7.484527 -5.596577 3.990948 22.655937 0.005337 2.602540 2.385035 0.052982 0.093757 -0.014880 -0.000000 0.000000 0.000000 0.000000 0.000000 0.000000 0.000000 
22.719965 16.418090 3.746943 -17.635668 -84.163918 13.534918 6.719850 -4.929431 -2.037026 0.854610 -5.508622 -2.721505 -5.887105 -5.448916 2.415953 9.900071 -20.563474 -10.211932 -3.289054 -0.232020 -0.629422 0.000000 0.000000 0.000000 2.771698 7.767753 1.497185 -37.718584 0.636458 14.573271 -2.838978 -36.968243 -0.002122 -2.129464 1.566851 -0.026159 -0.145194 -0.006278 0.000000 0.000000 0.000000 0.000000 0.000000 0.000000 0.000000 19.635022 -19.260391 -0.447261 60.771204 -6.382872 -6.315270 3.988230 21.989710 0.005694 2.216844 2.486291 0.046791 0.096874 -0.018431 -0.000000 0.000000 0.000000 0.000000 0.000000 0.000000 0.000000 
22.584527 16.440203 3.700451 -17.001065 -84.172183 12.760663 6.495898 -4.766817 -1.827471 0.773835 -5.324147 -2.681895 -5.961803 -5.265946 2.398994 9.862763 -20.087004 -10.111103 -3.324543 -0.235752 -0.606050 0.000000 0.000000 0.000000 2.662055 8.008010 1.496648 -37.872545 1.210604 14.709693 -2.905270 -36.212937 -0.002663 -2.113516 1.590003 -0.026484 -0.148253 -0.015624 0.000000 0.000000 0.000000 0.000000 0.000000 0.000000 0.000000 19.621397 -18.697902 -0.409136 60.628307 -5.310354 -6.912277 3.983793 21.370132 0.006061 1.865606 2.615855 0.041100 0.099652 -0.021975 -0.000000 0.000000 0.000000 0.000000 0.000000 0.000000 0.000000 
22.449838 16.463188 3.654307 -16.258153 -84.216961 11.903079 6.248550 -4.594501 -1.639881 0.690405 -5.128588 -2.646806 -6.031778 -5.071972 2.382939 9.819488 -19.601994 -10.008687 -3.355568 -0.239124 -0.582333 0.000000 0.000000 0.000000 2.525278 8.296555 1.493705 -38.033923 1.754883 14.742535 -2.976255 -35.436129 -0.003177 -2.075556 1.615351 -0.026513 -0.151400 -0.024375 0.000000 0.000000 0.000000 0.000000 0.000000 0.000000 0.000000 19.584103 -18.116346 -0.372706 60.465802 -4.254954 -7.340444 3.978057 20.804877 0.006441 1.555016 2.772226 0.035908 0.102080 -0.025412 -0.000000 0.000000 0.000000 0.000000 0.000000 0.000000 0.000000 
